<svg width="256" height="256" viewBox="0 0 256 256" fill="none" xmlns="http://www.w3.org/2000/svg">
<rect width="256" height="256" fill="white"/>
<rect x="1" y="1" width="256" height="256" fill="white"/>
<path d="M120.079 152.15L92.8619 152.213C92.4949 152.213 92.128 152.466 92.0056 152.846L89.9261 158.861C89.7426 159.494 90.1708 160.128 90.7824 160.128H101.363C102.159 160.128 102.587 161.141 102.036 161.71L85.1555 179.882H85.2167L93.9017 208.185C94.0851 208.818 93.657 209.388 93.0454 209.388H84.5439C84.1157 209.388 83.8099 209.135 83.6876 208.755L79.3451 194.255C79.1005 193.369 77.9384 193.369 77.6326 194.192L74.0852 204.386C74.024 204.576 74.024 204.766 74.0852 204.956L77.3268 217.302C77.4491 217.682 77.8161 217.999 78.183 217.999H105.584C106.195 217.999 106.623 217.366 106.44 216.796L95.3695 181.149C95.2472 180.832 95.3695 180.452 95.6142 180.199L120.752 153.733C121.302 153.163 120.874 152.15 120.079 152.15Z" fill="black"/>
<path d="M87.847 137.333L71.2722 137.397C70.9052 137.397 70.5382 137.65 70.4159 138.03L68.2752 144.045C68.0306 144.678 68.5199 145.311 69.1315 145.311H76.1039C76.7156 145.311 77.1437 145.944 76.9602 146.578L57.2049 202.549C56.8991 203.373 55.7982 203.373 55.4924 202.549L41.3028 162.153C41.0582 161.52 41.5475 160.887 42.1591 160.887H49.315C49.682 160.887 50.049 161.14 50.1713 161.52L55.3089 176.083C55.6147 176.906 56.7156 176.906 57.0214 176.083L64.9725 153.416C65.2171 152.783 64.7278 152.149 64.1162 152.149H30.2325C29.6209 152.149 29.1927 152.783 29.3762 153.416L55.4312 228.383C55.737 229.206 56.8379 229.206 57.1437 228.383L88.7033 138.6C88.8868 137.967 88.4587 137.333 87.847 137.333Z" fill="#D8141C"/>
<path fill-rule="evenodd" clip-rule="evenodd" d="M198.083 29C210.74 29 221 39.2601 221 51.9167V135.25H208.5V51.9167C208.5 46.1637 203.836 41.5 198.083 41.5H131.417V29H198.083ZM179.333 66.4992H96C93.6989 66.4992 91.8334 68.3647 91.8334 70.6659V125.384C90.6166 125.028 89.2868 124.833 87.8472 124.833L79.3334 124.866V70.6659C79.3334 61.4612 86.7953 53.9992 96 53.9992H179.333C188.538 53.9992 196 61.4612 196 70.6659V170.666C196 179.871 188.538 187.333 179.333 187.333H110.379L109.319 183.92L117.951 174.833H179.333C181.635 174.833 183.5 172.967 183.5 170.666V70.6659C183.5 68.3647 181.635 66.4992 179.333 66.4992ZM123.459 140.06L129.495 134.025L114.359 118.857L129.503 103.621L122.414 96.5713L103.5 115.563V122.144L121.011 139.679C121.861 139.734 122.678 139.864 123.459 140.06ZM152.753 96.6105L171.833 115.569V122.171L152.755 141.111L145.705 134.021L160.96 118.857L145.749 103.704L152.753 96.6105Z" fill="#1E1E1E"/>
</svg>
